<svg width="507" height="102" viewBox="0 0 507 102" fill="none" xmlns="http://www.w3.org/2000/svg">
<g clip-path="url(#clip0)">
<path d="M38.5603 7.44829L309.665 11.6089L470.755 5.40507L505.306 20.6292L492.968 47.9699L501.993 80.6653L485.13 90.8879L353.013 95.8071L188.131 97.6843C178.19 91.3204 169.057 85.655 167.99 85.4347C165.323 85.0024 107.477 93.853 107.477 93.853L54.4883 90.1802L44.7663 80.8492L42.7689 55.2747L10.7729 50.3239C10.7729 50.3239 7.92765 38.514 7.11128 37.3413C6.83978 36.9899 3.87744 34.6655 0.373965 31.7569L0.682534 17.5266L38.5603 7.44829Z" fill="#DB1C8B"/>
<g opacity="0.45">
<g opacity="0.45">
<path opacity="0.45" d="M1.24706 19.534L0.904487 31.631L1.24706 19.534Z" fill="white"/>
</g>
</g>
<path d="M1.21356 17.4007L39.3572 7.31821L310.196 11.483L471.286 5.27917L505.837 20.5033L493.499 47.844L502.524 80.5394L485.66 90.6435L484.332 90.7829L494.08 84.8211L487.205 53.5144L473.405 55.5093L485.786 47.8465L497.393 24.785L462.842 9.56084L309.46 15.4066L308.218 20.9978L302.55 15.7522L301.752 15.7647L30.9129 11.5999L1.24705 19.534L1.21356 17.4007Z" fill="white"/>
<path d="M0.612198 29.976C6.48663 31.4248 12.6307 33.1066 12.9059 33.695C13.4564 34.8718 13.9512 49.4451 13.9512 49.4451L46.9234 48.809L52.0243 51.8111L52.4317 77.7662L84.7793 88.1645L126.28 88.5799L166.058 80.9612C175.685 84.2479 195.992 90.0935 195.992 90.0935L269.916 88.8144L355.549 87.9443L370.11 83.5666L373.9 87.7747L492.244 86.5096L490.663 87.4827L484.599 90.8972L353.013 95.8081L188.131 97.6853L161.954 90.6279L106.947 93.9809L53.9586 90.308L44.5062 81.2099L42.5107 55.7539L42.2448 55.7581L42.2392 55.4025L11.0409 50.4392C10.4756 48.3142 8.20123 38.9848 7.65079 37.808C7.65079 37.808 7.64893 37.6895 7.38114 37.5752C7.37928 37.4567 7.37742 37.3381 7.37742 37.3381C7.10592 36.9868 4.41137 34.7767 0.909748 31.9866L0.612198 29.976Z" fill="#82027E"/>
</g>
<defs>
<clipPath id="clip0">
<rect width="505.577" height="93.4025" fill="white" transform="translate(0 7.93608) rotate(-0.899414)"/>
</clipPath>
</defs>
</svg>
